<?xml version="1.0" encoding="UTF-8"?><svg id="Layer_2" xmlns="http://www.w3.org/2000/svg" xmlns:xlink="http://www.w3.org/1999/xlink" viewBox="0 0 626.72 124.25"><defs><style>.cls-1{fill:url(#linear-gradient);}.cls-1,.cls-2{fill-rule:evenodd;}.cls-2{fill:url(#linear-gradient-2);}</style><linearGradient id="linear-gradient" x1="96.28" y1="123.57" x2="25.2" y2=".45" gradientTransform="matrix(1, 0, 0, 1, 0, 0)" gradientUnits="userSpaceOnUse"><stop offset="0" stop-color="#8c50a0"/><stop offset="1" stop-color="#304384"/></linearGradient><linearGradient id="linear-gradient-2" x1="450.79" y1="174.48" x2="317.11" y2="-57.07" xlink:href="#linear-gradient"/></defs><g id="Layer_1-2"><g><path class="cls-1" d="M31.8,112.9c-11.25,0-20.45-9.2-20.45-20.45V33.33c0-11.25,9.2-20.45,20.45-20.45,4.81,0,9.25,1.68,12.75,4.49,2.74,2.2,4.91,5.09,6.24,8.4l-2.8,2.8-20.75,20.75-1.77,1.77c-3.11,3.11-5.43,6.71-6.98,10.56,1.54,3.57,3.76,6.92,6.67,9.82l2.36,2.36,20.16,20.16,3.83,3.83c-.76,2.78-2.1,5.33-3.87,7.51-3.76,4.62-9.48,7.58-15.86,7.58h0ZM59.51,17.05l-.51-.13C53.42,7.71,43.29,1.53,31.8,1.53,14.31,1.53,0,15.84,0,33.33v59.12c0,17.49,14.31,31.8,31.8,31.8,12.43,0,23.25-7.23,28.47-17.69l6.71,6.71c12.37,12.37,32.6,12.37,44.97,0,12.37-12.37,12.37-32.6,0-44.97l-6.88-6.88,7.18-7.18c12.37-12.37,12.37-32.6,0-44.97-12.37-12.37-32.6-12.37-44.97,0l-7.77,7.77h0Zm6.32,67.57l8.02,8.02,23.2-23.2,6.88,6.88c7.94,7.94,7.94,20.99,0,28.92-7.94,7.94-20.99,7.94-28.92,0l-7-7-4.44-4.44-3.65-3.65-7.67-7.67-19.05-19.05c-.62-.62-1.2-1.28-1.73-1.97,.61-.83,1.29-1.62,2.03-2.37l18.75-18.75,7.72-7.72,3.37-3.37,4.7-4.7,7.27-7.27c7.95-7.95,20.97-7.95,28.92,0,7.95,7.95,7.95,20.97,0,28.92l-7.18,7.18-8.02,8.02-23.2,23.2h0Z"/><path class="cls-2" d="M163.04,59.34l16.55-17.12h-8.59l-18.94,20.02v-20.02h-6.94v39.8h6.94v-11.54l6.2-6.37,13.59,17.91h8.47l-17.29-22.69h0Zm117.09,10.41l-21.28-27.52h-6.47v39.8h6.94v-28.32l21.9,28.32h5.85V42.22h-6.94v27.52h0Zm65.67-7.68c0-2.8-.51-5.42-1.54-7.85-1.02-2.43-2.47-4.53-4.35-6.31-1.87-1.78-4.11-3.18-6.71-4.18-2.6-1.01-5.45-1.51-8.56-1.51h-14.84v39.8h14.84c3.11,0,5.96-.51,8.56-1.54,2.6-1.02,4.83-2.43,6.71-4.21,1.88-1.78,3.33-3.9,4.35-6.34,1.02-2.44,1.54-5.07,1.54-7.88h0Zm-7.34,.11c0,1.98-.33,3.8-.99,5.45-.66,1.66-1.6,3.09-2.79,4.28-1.2,1.2-2.65,2.13-4.36,2.81-1.72,.66-3.61,.99-5.71,.99h-7.87v-27.18h7.87c2.1,0,3.99,.34,5.71,1.03,1.71,.69,3.17,1.64,4.36,2.86,1.19,1.21,2.13,2.65,2.79,4.31,.66,1.65,.99,3.47,.99,5.45h0Zm57.77-19.96h-29.46v39.8h29.74v-6.31h-22.8v-10.63h19.96v-6.31h-19.96v-10.24h22.52v-6.31h0Zm54.92,39.8l-10.75-15.07c1.4-.38,2.68-.92,3.84-1.62,1.16-.7,2.15-1.55,2.99-2.56,.83-1.01,1.49-2.16,1.96-3.47,.48-1.31,.71-2.79,.71-4.46,0-1.93-.34-3.69-1.02-5.26-.68-1.57-1.66-2.9-2.93-3.98-1.27-1.08-2.82-1.91-4.66-2.5-1.84-.59-3.9-.88-6.17-.88h-17.74v39.8h6.94v-13.88h8.79l9.81,13.88h8.24Zm-8.36-26.81c0,2.06-.74,3.7-2.23,4.91-1.48,1.22-3.48,1.83-5.99,1.83h-10.26v-13.42h10.21c2.63,0,4.66,.56,6.1,1.69,1.45,1.12,2.17,2.79,2.17,4.99h0Zm41.33,16.52l-9.5-29.51h-7.56l13.87,40.09h6.03l9.78-28.6,9.78,28.6h6.03l13.88-40.09h-7.34l-9.5,29.51-9.78-29.63h-5.91l-9.78,29.63h0Zm77.44-29.8h-6.48l-17.51,40.09h7.16l4.09-9.61h18.82l4.04,9.61h7.39l-17.51-40.09h0Zm3.52,24.28h-13.7l6.82-15.92,6.88,15.92h0Zm45.82-.06l15.81-23.94h-8.02l-11.26,17.63-11.14-17.63h-8.25l15.81,24.11v15.7h7.05v-15.86h0Zm-391.87,0l15.81-23.94h-8.02l-11.26,17.63-11.14-17.63h-8.25l15.81,24.11v15.7h7.05v-15.86h0Z"/></g></g></svg>